 <svg  version="1.0" xmlns="http://www.w3.org/2000/svg"  width="51.000000pt" height="47.000000pt" viewBox="0 0 51.000000 47.000000"  preserveAspectRatio="xMidYMid meet">  <g transform="translate(0.000000,47.000000) scale(0.100000,-0.100000)" fill="#359edd" stroke="none"> <path d="M215 334 c9 -14 14 -33 10 -41 -5 -14 -10 -12 -33 10 -16 15 -34 27 -40 27 -21 0 -36 -45 -25 -77 7 -19 7 -33 -1 -45 -7 -12 -7 -26 0 -45 12 -34 46 -35 73 -2 16 20 18 20 31 4 11 -13 11 -21 2 -35 -15 -24 -6 -30 46 -30 35 0 45 4 49 20 3 10 13 22 22 25 19 6 69 55 57 55 -5 0 -3 6 3 14 10 11 9 21 -3 43 -16 32 -51 64 -60 56 -3 -3 -10 6 -15 21 -10 24 -15 26 -72 26 l-61 0 17 -26z m90 -4 c3 -5 0 -10 -9 -10 -8 0 -21 -3 -29 -6 -8 -3 -17 2 -20 10 -5 12 0 16 23 16 16 0 32 -4 35 -10z m-125 -49 c21 -41 8 -121 -21 -121 -4 0 -7 32 -7 70 1 71 9 86 28 51z m111 -8 c-9 -19 -7 -86 5 -104 12 -20 -59 16 -72 36 -20 31 -5 61 39 80 37 16 42 14 28 -12z m78 -9 c12 -15 21 -32 21 -38 0 -17 -38 -56 -55 -56 -17 0 -30 59 -21 95 8 32 29 32 55 -1z"/> </g> </svg> 